M48
; DRILL file {KiCad (5.1.10)-1} date 09/06/21 14:57:24
; FORMAT={-:-/ absolute / inch / decimal}
; #@! TF.CreationDate,2021-09-06T14:57:24-05:00
; #@! TF.GenerationSoftware,Kicad,Pcbnew,(5.1.10)-1
; #@! TF.FileFunction,Plated,1,2,PTH
FMAT,2
INCH
T1C0.0394
%
G90
G05
T1
X4.9568Y-3.6731
X4.9568Y-3.7731
X5.0568Y-3.6731
X5.0568Y-3.7731
X5.1568Y-3.6731
X5.1568Y-3.7731
X5.2568Y-3.6731
X5.2568Y-3.7731
X5.3568Y-3.6731
X5.3568Y-3.7731
X5.4568Y-3.6731
X5.4568Y-3.7731
X5.5568Y-3.6731
X5.5568Y-3.7731
X5.6568Y-3.6731
X5.6568Y-3.7731
X5.7568Y-3.6731
X5.7568Y-3.7731
X5.8568Y-3.6731
X5.8568Y-3.7731
X5.9568Y-3.6731
X5.9568Y-3.7731
X6.0568Y-3.6731
X6.0568Y-3.7731
X6.1568Y-3.6731
X6.1568Y-3.7731
X6.2568Y-3.6731
X6.2568Y-3.7731
X6.3568Y-3.6731
X6.3568Y-3.7731
X6.4568Y-3.6731
X6.4568Y-3.7731
X6.5568Y-3.6731
X6.5568Y-3.7731
X6.6568Y-3.6731
X6.6568Y-3.7731
X6.7568Y-3.6731
X6.7568Y-3.7731
X6.8568Y-3.6731
X6.8568Y-3.7731
T1
G00X4.9064Y-4.072
M15
G01X4.9064Y-4.1743
M16
G05
G00X4.9891Y-4.3121
M15
G01X5.0914Y-4.3121
M16
G05
G00X5.1544Y-4.072
M15
G01X5.1544Y-4.1743
M16
G05
T0
M30
