G04 #@! TF.GenerationSoftware,KiCad,Pcbnew,(5.1.10)-1*
G04 #@! TF.CreationDate,2021-09-06T14:57:21-05:00*
G04 #@! TF.ProjectId,RGBHat,52474248-6174-42e6-9b69-6361645f7063,1.0*
G04 #@! TF.SameCoordinates,Original*
G04 #@! TF.FileFunction,Legend,Top*
G04 #@! TF.FilePolarity,Positive*
%FSLAX46Y46*%
G04 Gerber Fmt 4.6, Leading zero omitted, Abs format (unit mm)*
G04 Created by KiCad (PCBNEW (5.1.10)-1) date 2021-09-06 14:57:21*
%MOMM*%
%LPD*%
G01*
G04 APERTURE LIST*
%ADD10C,0.300000*%
%ADD11C,0.200000*%
%ADD12C,0.150000*%
G04 APERTURE END LIST*
D10*
X158502000Y-114286571D02*
X158502000Y-112786571D01*
X159359142Y-114286571D01*
X159359142Y-112786571D01*
X160073428Y-114286571D02*
X160073428Y-113286571D01*
X160073428Y-112786571D02*
X160002000Y-112858000D01*
X160073428Y-112929428D01*
X160144857Y-112858000D01*
X160073428Y-112786571D01*
X160073428Y-112929428D01*
X161430571Y-114215142D02*
X161287714Y-114286571D01*
X161002000Y-114286571D01*
X160859142Y-114215142D01*
X160787714Y-114143714D01*
X160716285Y-114000857D01*
X160716285Y-113572285D01*
X160787714Y-113429428D01*
X160859142Y-113358000D01*
X161002000Y-113286571D01*
X161287714Y-113286571D01*
X161430571Y-113358000D01*
X162073428Y-114286571D02*
X162073428Y-112786571D01*
X162716285Y-114286571D02*
X162716285Y-113500857D01*
X162644857Y-113358000D01*
X162502000Y-113286571D01*
X162287714Y-113286571D01*
X162144857Y-113358000D01*
X162073428Y-113429428D01*
X163644857Y-114286571D02*
X163502000Y-114215142D01*
X163430571Y-114143714D01*
X163359142Y-114000857D01*
X163359142Y-113572285D01*
X163430571Y-113429428D01*
X163502000Y-113358000D01*
X163644857Y-113286571D01*
X163859142Y-113286571D01*
X164002000Y-113358000D01*
X164073428Y-113429428D01*
X164144857Y-113572285D01*
X164144857Y-114000857D01*
X164073428Y-114143714D01*
X164002000Y-114215142D01*
X163859142Y-114286571D01*
X163644857Y-114286571D01*
X165002000Y-114286571D02*
X164859142Y-114215142D01*
X164787714Y-114072285D01*
X164787714Y-112786571D01*
X166216285Y-114286571D02*
X166216285Y-113500857D01*
X166144857Y-113358000D01*
X166002000Y-113286571D01*
X165716285Y-113286571D01*
X165573428Y-113358000D01*
X166216285Y-114215142D02*
X166073428Y-114286571D01*
X165716285Y-114286571D01*
X165573428Y-114215142D01*
X165502000Y-114072285D01*
X165502000Y-113929428D01*
X165573428Y-113786571D01*
X165716285Y-113715142D01*
X166073428Y-113715142D01*
X166216285Y-113643714D01*
X166859142Y-114215142D02*
X167002000Y-114286571D01*
X167287714Y-114286571D01*
X167430571Y-114215142D01*
X167502000Y-114072285D01*
X167502000Y-114000857D01*
X167430571Y-113858000D01*
X167287714Y-113786571D01*
X167073428Y-113786571D01*
X166930571Y-113715142D01*
X166859142Y-113572285D01*
X166859142Y-113500857D01*
X166930571Y-113358000D01*
X167073428Y-113286571D01*
X167287714Y-113286571D01*
X167430571Y-113358000D01*
X170073428Y-112858000D02*
X169930571Y-112786571D01*
X169716285Y-112786571D01*
X169502000Y-112858000D01*
X169359142Y-113000857D01*
X169287714Y-113143714D01*
X169216285Y-113429428D01*
X169216285Y-113643714D01*
X169287714Y-113929428D01*
X169359142Y-114072285D01*
X169502000Y-114215142D01*
X169716285Y-114286571D01*
X169859142Y-114286571D01*
X170073428Y-114215142D01*
X170144857Y-114143714D01*
X170144857Y-113643714D01*
X169859142Y-113643714D01*
X170787714Y-114286571D02*
X170787714Y-113286571D01*
X170787714Y-113572285D02*
X170859142Y-113429428D01*
X170930571Y-113358000D01*
X171073428Y-113286571D01*
X171216285Y-113286571D01*
X172287714Y-114215142D02*
X172144857Y-114286571D01*
X171859142Y-114286571D01*
X171716285Y-114215142D01*
X171644857Y-114072285D01*
X171644857Y-113500857D01*
X171716285Y-113358000D01*
X171859142Y-113286571D01*
X172144857Y-113286571D01*
X172287714Y-113358000D01*
X172359142Y-113500857D01*
X172359142Y-113643714D01*
X171644857Y-113786571D01*
X173644857Y-113286571D02*
X173644857Y-114500857D01*
X173573428Y-114643714D01*
X173502000Y-114715142D01*
X173359142Y-114786571D01*
X173144857Y-114786571D01*
X173002000Y-114715142D01*
X173644857Y-114215142D02*
X173502000Y-114286571D01*
X173216285Y-114286571D01*
X173073428Y-114215142D01*
X173002000Y-114143714D01*
X172930571Y-114000857D01*
X172930571Y-113572285D01*
X173002000Y-113429428D01*
X173073428Y-113358000D01*
X173216285Y-113286571D01*
X173502000Y-113286571D01*
X173644857Y-113358000D01*
X175002000Y-113286571D02*
X175002000Y-114500857D01*
X174930571Y-114643714D01*
X174859142Y-114715142D01*
X174716285Y-114786571D01*
X174502000Y-114786571D01*
X174359142Y-114715142D01*
X175002000Y-114215142D02*
X174859142Y-114286571D01*
X174573428Y-114286571D01*
X174430571Y-114215142D01*
X174359142Y-114143714D01*
X174287714Y-114000857D01*
X174287714Y-113572285D01*
X174359142Y-113429428D01*
X174430571Y-113358000D01*
X174573428Y-113286571D01*
X174859142Y-113286571D01*
X175002000Y-113358000D01*
X160823428Y-116836571D02*
X160323428Y-116122285D01*
X159966285Y-116836571D02*
X159966285Y-115336571D01*
X160537714Y-115336571D01*
X160680571Y-115408000D01*
X160752000Y-115479428D01*
X160823428Y-115622285D01*
X160823428Y-115836571D01*
X160752000Y-115979428D01*
X160680571Y-116050857D01*
X160537714Y-116122285D01*
X159966285Y-116122285D01*
X161466285Y-116836571D02*
X161466285Y-115336571D01*
X162037714Y-115336571D01*
X162180571Y-115408000D01*
X162252000Y-115479428D01*
X162323428Y-115622285D01*
X162323428Y-115836571D01*
X162252000Y-115979428D01*
X162180571Y-116050857D01*
X162037714Y-116122285D01*
X161466285Y-116122285D01*
X162966285Y-116836571D02*
X162966285Y-115836571D01*
X162966285Y-115336571D02*
X162894857Y-115408000D01*
X162966285Y-115479428D01*
X163037714Y-115408000D01*
X162966285Y-115336571D01*
X162966285Y-115479428D01*
X164394857Y-116836571D02*
X163680571Y-116836571D01*
X163680571Y-115336571D01*
X164894857Y-116836571D02*
X164894857Y-115836571D01*
X164894857Y-115336571D02*
X164823428Y-115408000D01*
X164894857Y-115479428D01*
X164966285Y-115408000D01*
X164894857Y-115336571D01*
X164894857Y-115479428D01*
X166252000Y-115836571D02*
X166252000Y-117050857D01*
X166180571Y-117193714D01*
X166109142Y-117265142D01*
X165966285Y-117336571D01*
X165752000Y-117336571D01*
X165609142Y-117265142D01*
X166252000Y-116765142D02*
X166109142Y-116836571D01*
X165823428Y-116836571D01*
X165680571Y-116765142D01*
X165609142Y-116693714D01*
X165537714Y-116550857D01*
X165537714Y-116122285D01*
X165609142Y-115979428D01*
X165680571Y-115908000D01*
X165823428Y-115836571D01*
X166109142Y-115836571D01*
X166252000Y-115908000D01*
X166966285Y-116836571D02*
X166966285Y-115336571D01*
X167609142Y-116836571D02*
X167609142Y-116050857D01*
X167537714Y-115908000D01*
X167394857Y-115836571D01*
X167180571Y-115836571D01*
X167037714Y-115908000D01*
X166966285Y-115979428D01*
X168109142Y-115836571D02*
X168680571Y-115836571D01*
X168323428Y-115336571D02*
X168323428Y-116622285D01*
X168394857Y-116765142D01*
X168537714Y-116836571D01*
X168680571Y-116836571D01*
X169109142Y-116765142D02*
X169252000Y-116836571D01*
X169537714Y-116836571D01*
X169680571Y-116765142D01*
X169752000Y-116622285D01*
X169752000Y-116550857D01*
X169680571Y-116408000D01*
X169537714Y-116336571D01*
X169323428Y-116336571D01*
X169180571Y-116265142D01*
X169109142Y-116122285D01*
X169109142Y-116050857D01*
X169180571Y-115908000D01*
X169323428Y-115836571D01*
X169537714Y-115836571D01*
X169680571Y-115908000D01*
X171323428Y-115336571D02*
X171823428Y-116836571D01*
X172323428Y-115336571D01*
X173609142Y-116836571D02*
X172752000Y-116836571D01*
X173180571Y-116836571D02*
X173180571Y-115336571D01*
X173037714Y-115550857D01*
X172894857Y-115693714D01*
X172752000Y-115765142D01*
X161573428Y-119315142D02*
X161787714Y-119386571D01*
X162144857Y-119386571D01*
X162287714Y-119315142D01*
X162359142Y-119243714D01*
X162430571Y-119100857D01*
X162430571Y-118958000D01*
X162359142Y-118815142D01*
X162287714Y-118743714D01*
X162144857Y-118672285D01*
X161859142Y-118600857D01*
X161716285Y-118529428D01*
X161644857Y-118458000D01*
X161573428Y-118315142D01*
X161573428Y-118172285D01*
X161644857Y-118029428D01*
X161716285Y-117958000D01*
X161859142Y-117886571D01*
X162216285Y-117886571D01*
X162430571Y-117958000D01*
X163644857Y-119315142D02*
X163502000Y-119386571D01*
X163216285Y-119386571D01*
X163073428Y-119315142D01*
X163002000Y-119172285D01*
X163002000Y-118600857D01*
X163073428Y-118458000D01*
X163216285Y-118386571D01*
X163502000Y-118386571D01*
X163644857Y-118458000D01*
X163716285Y-118600857D01*
X163716285Y-118743714D01*
X163002000Y-118886571D01*
X164359142Y-118386571D02*
X164359142Y-119886571D01*
X164359142Y-118458000D02*
X164502000Y-118386571D01*
X164787714Y-118386571D01*
X164930571Y-118458000D01*
X165002000Y-118529428D01*
X165073428Y-118672285D01*
X165073428Y-119100857D01*
X165002000Y-119243714D01*
X164930571Y-119315142D01*
X164787714Y-119386571D01*
X164502000Y-119386571D01*
X164359142Y-119315142D01*
X166787714Y-118029428D02*
X166859142Y-117958000D01*
X167002000Y-117886571D01*
X167359142Y-117886571D01*
X167502000Y-117958000D01*
X167573428Y-118029428D01*
X167644857Y-118172285D01*
X167644857Y-118315142D01*
X167573428Y-118529428D01*
X166716285Y-119386571D01*
X167644857Y-119386571D01*
X168573428Y-117886571D02*
X168716285Y-117886571D01*
X168859142Y-117958000D01*
X168930571Y-118029428D01*
X169002000Y-118172285D01*
X169073428Y-118458000D01*
X169073428Y-118815142D01*
X169002000Y-119100857D01*
X168930571Y-119243714D01*
X168859142Y-119315142D01*
X168716285Y-119386571D01*
X168573428Y-119386571D01*
X168430571Y-119315142D01*
X168359142Y-119243714D01*
X168287714Y-119100857D01*
X168216285Y-118815142D01*
X168216285Y-118458000D01*
X168287714Y-118172285D01*
X168359142Y-118029428D01*
X168430571Y-117958000D01*
X168573428Y-117886571D01*
X169644857Y-118029428D02*
X169716285Y-117958000D01*
X169859142Y-117886571D01*
X170216285Y-117886571D01*
X170359142Y-117958000D01*
X170430571Y-118029428D01*
X170502000Y-118172285D01*
X170502000Y-118315142D01*
X170430571Y-118529428D01*
X169573428Y-119386571D01*
X170502000Y-119386571D01*
X171930571Y-119386571D02*
X171073428Y-119386571D01*
X171502000Y-119386571D02*
X171502000Y-117886571D01*
X171359142Y-118100857D01*
X171216285Y-118243714D01*
X171073428Y-118315142D01*
D11*
X131372000Y-109228000D02*
X130122000Y-109228000D01*
X131372000Y-107178000D02*
X131372000Y-109228000D01*
X117072000Y-109228000D02*
X125622000Y-109228000D01*
X117072000Y-100228000D02*
X117072000Y-109228000D01*
X131372000Y-100228000D02*
X117072000Y-100228000D01*
X131372000Y-102278000D02*
X131372000Y-100228000D01*
D12*
X132115464Y-105591730D02*
X133258850Y-105591730D01*
X133487527Y-105667955D01*
X133639978Y-105820407D01*
X133716204Y-106049084D01*
X133716204Y-106201535D01*
X132267915Y-104905698D02*
X132191690Y-104829472D01*
X132115464Y-104677021D01*
X132115464Y-104295892D01*
X132191690Y-104143441D01*
X132267915Y-104067215D01*
X132420367Y-103990990D01*
X132572818Y-103990990D01*
X132801495Y-104067215D01*
X133716204Y-104981924D01*
X133716204Y-103990990D01*
D11*
X178690095Y-111848000D02*
X178594857Y-111800380D01*
X178452000Y-111800380D01*
X178309142Y-111848000D01*
X178213904Y-111943238D01*
X178166285Y-112038476D01*
X178118666Y-112228952D01*
X178118666Y-112371809D01*
X178166285Y-112562285D01*
X178213904Y-112657523D01*
X178309142Y-112752761D01*
X178452000Y-112800380D01*
X178547238Y-112800380D01*
X178690095Y-112752761D01*
X178737714Y-112705142D01*
X178737714Y-112371809D01*
X178547238Y-112371809D01*
X179166285Y-112800380D02*
X179166285Y-111800380D01*
X179737714Y-112800380D01*
X179737714Y-111800380D01*
X180213904Y-112800380D02*
X180213904Y-111800380D01*
X180452000Y-111800380D01*
X180594857Y-111848000D01*
X180690095Y-111943238D01*
X180737714Y-112038476D01*
X180785333Y-112228952D01*
X180785333Y-112371809D01*
X180737714Y-112562285D01*
X180690095Y-112657523D01*
X180594857Y-112752761D01*
X180452000Y-112800380D01*
X180213904Y-112800380D01*
X178714380Y-100021809D02*
X179714380Y-99688476D01*
X178714380Y-99355142D01*
X179714380Y-99021809D02*
X179047714Y-99021809D01*
X178714380Y-99021809D02*
X178762000Y-99069428D01*
X178809619Y-99021809D01*
X178762000Y-98974190D01*
X178714380Y-99021809D01*
X178809619Y-99021809D01*
X179047714Y-98545619D02*
X179714380Y-98545619D01*
X179142952Y-98545619D02*
X179095333Y-98498000D01*
X179047714Y-98402761D01*
X179047714Y-98259904D01*
X179095333Y-98164666D01*
X179190571Y-98117047D01*
X179714380Y-98117047D01*
M02*
